<svg xmlns="http://www.w3.org/2000/svg" xmlns:xlink="http://www.w3.org/1999/xlink" width="96" height="64" version="1.1" viewBox="0 0 96 64"><title>citizen-symbol</title><desc>Created with Sketch.</desc><defs><linearGradient id="linearGradient-1" x1="37.5%" x2="62.5%" y1="42.081%" y2="0%"><stop offset="0%" stop-color="#3889FA"/><stop offset="100%" stop-color="#066BF9"/></linearGradient><linearGradient id="linearGradient-2" x1="39.111%" x2="60.889%" y1="96.067%" y2="50%"><stop offset="0%" stop-color="#066BF9"/><stop offset="100%" stop-color="#3889FA"/></linearGradient></defs><g id="Page-1" fill="none" fill-rule="evenodd" stroke="none" stroke-width="1"><g id="citizen-symbol" fill-rule="nonzero"><g id="N" transform="translate(48.000000, 0.000000)"><polygon id="Rectangle" fill="url(#linearGradient-1)" points="34 20 48 20 48 48 34 36.8"/><polygon id="Rectangle" fill="url(#linearGradient-2)" points="0 16 14 29.636 14 46 0 32.364"/><polygon id="Rectangle" fill="#066BF9" points="0 0 48 45.333 48 64 0 18.667"/></g><path id="Path" fill="#066BF9" d="M9.15055335,10.6666667 L18.3552992,19.8714125 C15.0573193,23.1693923 13.0174764,27.7255091 13.0174764,32.7580567 C13.0174764,42.8231518 21.1768482,50.9825236 31.2419433,50.9825236 C36.2744909,50.9825236 40.8306077,48.9426807 44.1285875,45.6447008 L53.3333333,54.8494467 C47.6796536,60.5031264 39.8691678,64 31.2419433,64 C13.9874945,64 0,50.0125055 0,32.7580567 C0,24.1308322 3.49687362,16.3203464 9.15055335,10.6666667 Z"/></g></g></svg>