<?xml version="1.0" encoding="UTF-8"?>
<svg width="96px" height="64px" viewBox="0 0 96 64" version="1.1" xmlns="http://www.w3.org/2000/svg" xmlns:xlink="http://www.w3.org/1999/xlink">
    <!-- Generator: Sketch 59.1 (86144) - https://sketch.com -->
    <title>citizen-symbol</title>
    <desc>Created with Sketch.</desc>
    <defs>
        <linearGradient x1="37.5%" y1="42.0810697%" x2="62.5%" y2="0%" id="linearGradient-1">
            <stop stop-color="#3889FA" offset="0%"></stop>
            <stop stop-color="#066BF9" offset="100%"></stop>
        </linearGradient>
        <linearGradient x1="39.1111111%" y1="96.067427%" x2="60.8888889%" y2="50%" id="linearGradient-2">
            <stop stop-color="#066BF9" offset="0%"></stop>
            <stop stop-color="#3889FA" offset="100%"></stop>
        </linearGradient>
    </defs>
    <g id="Page-1" stroke="none" stroke-width="1" fill="none" fill-rule="evenodd">
        <g id="citizen-symbol" fill-rule="nonzero">
            <g id="N" transform="translate(48.000000, 0.000000)">
                <polygon id="Rectangle" fill="url(#linearGradient-1)" points="34 20 48 20 48 48 34 36.8"></polygon>
                <polygon id="Rectangle" fill="url(#linearGradient-2)" points="-4.97379915e-14 16 14 29.6363636 14 46 -4.97379915e-14 32.3636364"></polygon>
                <polygon id="Rectangle" fill="#066BF9" points="0 0 48 45.3333333 48 64 0 18.6666667"></polygon>
            </g>
            <path d="M9.15055335,10.6666667 L18.3552992,19.8714125 C15.0573193,23.1693923 13.0174764,27.7255091 13.0174764,32.7580567 C13.0174764,42.8231518 21.1768482,50.9825236 31.2419433,50.9825236 C36.2744909,50.9825236 40.8306077,48.9426807 44.1285875,45.6447008 L53.3333333,54.8494467 C47.6796536,60.5031264 39.8691678,64 31.2419433,64 C13.9874945,64 0,50.0125055 0,32.7580567 C0,24.1308322 3.49687362,16.3203464 9.15055335,10.6666667 Z" id="Path" fill="#066BF9"></path>
        </g>
    </g>
</svg>
