<svg xmlns="http://www.w3.org/2000/svg" xmlns:xlink="http://www.w3.org/1999/xlink" id="Layer_1" x="0" y="0" enable-background="new 0 0 125.5 24" version="1.1" viewBox="0 0 125.5 24" xml:space="preserve"><switch><g><g><path fill="#999" d="M117.9,4.8h-1.4v2.4h-0.8V1.3h2c0.7,0,1.2,0.2,1.5,0.5c0.4,0.3,0.5,0.7,0.5,1.3c0,0.4-0.1,0.7-0.3,1 c-0.2,0.3-0.5,0.5-0.8,0.6l1.4,2.5v0h-0.8L117.9,4.8z M116.5,4.2h1.2c0.4,0,0.7-0.1,0.9-0.3c0.2-0.2,0.3-0.5,0.3-0.8 c0-0.4-0.1-0.6-0.3-0.8c-0.2-0.2-0.5-0.3-0.9-0.3h-1.2V4.2z"/><path fill="#999" d="M125.3,4.5c0,0.6-0.1,1.1-0.3,1.5c-0.2,0.4-0.5,0.8-0.8,1c-0.4,0.2-0.8,0.3-1.2,0.3 c-0.5,0-0.9-0.1-1.2-0.3c-0.4-0.2-0.6-0.6-0.8-1c-0.2-0.4-0.3-0.9-0.3-1.5V4.1c0-0.6,0.1-1.1,0.3-1.5c0.2-0.4,0.5-0.8,0.8-1 c0.4-0.2,0.8-0.3,1.2-0.3c0.5,0,0.9,0.1,1.2,0.3c0.4,0.2,0.6,0.6,0.8,1c0.2,0.4,0.3,0.9,0.3,1.5V4.5z M124.6,4.1 c0-0.7-0.1-1.2-0.4-1.6c-0.3-0.4-0.7-0.6-1.2-0.6c-0.5,0-0.9,0.2-1.2,0.6c-0.3,0.4-0.4,0.9-0.4,1.6v0.4c0,0.7,0.1,1.2,0.4,1.6 c0.3,0.4,0.7,0.6,1.2,0.6c0.5,0,0.9-0.2,1.2-0.5c0.3-0.4,0.4-0.9,0.4-1.6V4.1z"/></g><path fill="#F90" d="M29.7,8.8c0,0.9-0.2,1.5-0.6,1.9c-0.4,0.3-1.1,0.5-2.1,0.5c-1,0-1.7-0.2-2.1-0.5c-0.4-0.3-0.5-0.9-0.5-1.8 c0-0.9,0.2-1.5,0.5-1.9c0.4-0.4,1.1-0.5,2.1-0.5c1,0,1.7,0.2,2.1,0.5S29.7,7.9,29.7,8.8z"/><path fill="#0CC" d="M11.5,12.6L11.5,12.6c-0.7,0.1-1.3-0.3-1.4-1l-0.1-0.8C10,10.4,9.9,10.1,9.8,10c-0.2-0.3-0.9-0.4-2-0.5 c-0.3,0-0.6,0-0.9,0c-1.3,0-2.1,0.1-2.5,0.2C4,9.8,3.7,10.2,3.5,11c-0.2,0.8-0.3,1.7-0.3,2.8l0,2.4c0,0.3,0,0.8,0,1.4 c0,0.8,0,1.3,0,1.6c0,0.3,0,0.7,0.1,1.1c0.1,0.4,0.2,0.6,0.3,0.7c0.1,0.1,0.3,0.2,0.6,0.3c0.3,0.1,0.6,0.2,1,0.2 c0.3,0,0.8,0,1.5,0c0.5,0,0.9,0,1.3-0.1c0.4,0,0.7-0.1,0.9-0.1c0.3-0.1,0.5-0.1,0.6-0.3c0.2-0.1,0.3-0.2,0.4-0.3s0.2-0.3,0.2-0.5 c0-0.2,0.1-0.4,0.1-0.6c0-0.2,0-0.4,0-0.7c0-0.3,0-0.6,0.1-0.8l1.2,0.2c0.6,0.1,1,0.7,1,1.3c0,0.2-0.1,0.4-0.1,0.6 c-0.1,0.4-0.2,0.9-0.4,1.3c-0.2,0.4-0.4,0.7-0.6,0.9c-0.2,0.2-0.6,0.4-1,0.6c-0.4,0.2-0.9,0.3-1.5,0.3c-0.6,0.1-1.3,0.1-2.2,0.1 c-0.6,0-1.2,0-1.7-0.1c-0.5,0-0.9-0.1-1.3-0.2C3.4,23.2,3,23.1,2.7,23c-0.3-0.1-0.6-0.3-0.8-0.6c-0.2-0.3-0.4-0.5-0.6-0.7 c-0.2-0.2-0.3-0.5-0.4-1c-0.1-0.4-0.2-0.8-0.2-1.1c-0.1-0.3-0.1-0.8-0.1-1.4c0-0.6,0-1.2,0-1.6c0-0.4,0-1.1,0-1.9 c0-0.7,0-1.4,0-1.9c0-0.5,0.1-1.1,0.2-1.6c0.1-0.5,0.2-0.9,0.3-1.2C1.2,9.6,1.4,9.3,1.6,9c0.2-0.3,0.5-0.5,0.8-0.7 C2.7,8.1,3.1,8,3.5,7.9c0.4-0.1,0.9-0.2,1.4-0.3c0.5,0,1.1-0.1,1.8-0.1c0.9,0,1.6,0,2.2,0.1c0.6,0.1,1.1,0.2,1.6,0.4 c0.5,0.2,0.8,0.5,1.1,0.9c0.3,0.4,0.5,0.8,0.6,1.4c0.1,0.3,0.1,0.5,0.2,0.8C12.6,11.9,12.2,12.5,11.5,12.6z"/><path fill="#0CC" d="M18,23.4h-0.4c-0.7,0-1.2-0.5-1.2-1.2v-13c0-0.7,0.5-1.2,1.2-1.2H18c0.7,0,1.2,0.5,1.2,1.2v13 C19.2,22.8,18.6,23.4,18,23.4z"/><path fill="#0CC" d="M37.3,0.9l-7.4,22.4h-3l-3.6-9.3h2.6l0.5,0.8c0.7,1,2.2,0.9,2.8-0.2l5.9-12.4C35.5,1.5,36.3,0.9,37.3,0.9 L37.3,0.9z"/><path fill="#0CC" d="M39.4,23.4h-0.4c-0.7,0-1.2-0.5-1.2-1.2v-13c0-0.7,0.5-1.2,1.2-1.2h0.4c0.7,0,1.2,0.5,1.2,1.2v13 C40.6,22.8,40.1,23.4,39.4,23.4z"/><path fill="#0CC" d="M55.6,12.6L55.6,12.6c-0.7,0.1-1.3-0.3-1.4-1l-0.1-0.8c-0.1-0.4-0.2-0.7-0.3-0.9c-0.2-0.3-0.9-0.4-2-0.5 c-0.3,0-0.6,0-0.9,0c-1.3,0-2.1,0.1-2.5,0.2c-0.4,0.1-0.7,0.5-0.9,1.3c-0.2,0.8-0.3,1.7-0.3,2.8l0,2.4c0,0.3,0,0.8,0,1.4 c0,0.8,0,1.3,0,1.6c0,0.3,0,0.7,0.1,1.1c0.1,0.4,0.2,0.6,0.3,0.7c0.1,0.1,0.3,0.2,0.6,0.3c0.3,0.1,0.6,0.2,1,0.2 c0.3,0,0.8,0,1.5,0c0.5,0,0.9,0,1.3-0.1c0.4,0,0.7-0.1,0.9-0.1c0.3-0.1,0.5-0.1,0.6-0.3s0.3-0.2,0.4-0.3c0.1-0.1,0.2-0.3,0.2-0.5 c0-0.2,0.1-0.4,0.1-0.6c0-0.2,0-0.4,0-0.7c0-0.3,0-0.6,0.1-0.8l1.2,0.2c0.6,0.1,1,0.7,1,1.3c0,0.2-0.1,0.4-0.1,0.6 c-0.1,0.4-0.2,0.9-0.4,1.3c-0.2,0.4-0.4,0.7-0.6,0.9c-0.2,0.2-0.6,0.4-1,0.6c-0.4,0.2-0.9,0.3-1.5,0.3c-0.6,0.1-1.3,0.1-2.2,0.1 c-0.6,0-1.2,0-1.7-0.1c-0.5,0-0.9-0.1-1.3-0.2c-0.4-0.1-0.8-0.2-1.1-0.3c-0.3-0.1-0.6-0.3-0.8-0.6c-0.2-0.3-0.4-0.5-0.6-0.7 c-0.2-0.2-0.3-0.5-0.4-1c-0.1-0.4-0.2-0.8-0.2-1.1c-0.1-0.3-0.1-0.8-0.1-1.4c0-0.6,0-1.2,0-1.6c0-0.4,0-1.1,0-1.9 c0-0.7,0-1.4,0-1.9c0-0.5,0.1-1.1,0.2-1.6c0.1-0.5,0.2-0.9,0.3-1.2c0.1-0.3,0.3-0.6,0.5-0.9c0.2-0.3,0.5-0.5,0.8-0.7 c0.3-0.2,0.7-0.3,1.1-0.4C48,7.8,48.5,7.7,49,7.6c0.5,0,1.1-0.1,1.8-0.1c0.9,0,1.6,0,2.2,0.1s1.1,0.2,1.6,0.4 c0.5,0.2,0.8,0.5,1.1,0.9c0.3,0.4,0.5,0.8,0.6,1.4c0.1,0.3,0.1,0.5,0.2,0.8C56.7,11.9,56.3,12.5,55.6,12.6z"/><path fill="#0CC" d="M66.4,22.3l0,0.4c0,0.4-0.3,0.7-0.7,0.8c-0.5,0.1-1,0.1-1.4,0.1c-0.7,0-1.2-0.1-1.7-0.2 c-0.4-0.1-0.8-0.4-1-0.7c-0.2-0.3-0.4-0.7-0.5-1.1C61,21.2,61,20.6,61,20v-9c0-0.8-0.6-1.4-1.4-1.4l0,0c-0.4,0-0.7-0.3-0.7-0.7 V8.6c0-0.4,0.3-0.7,0.7-0.7l0,0C60.3,8,61,7.3,61,6.6V4.3c0-0.4,0.3-0.7,0.7-0.8l1.2-0.1c0.5,0,0.8,0.3,0.8,0.8v3 c0,0.4,0.4,0.8,0.8,0.8h1.3c0.4,0,0.8,0.4,0.8,0.8v0c0,0.4-0.4,0.8-0.8,0.8h-1.3c-0.4,0-0.8,0.4-0.8,0.8v8.7c0,1,0,1.7,0.1,2 c0.1,0.3,0.4,0.4,0.8,0.4c0.2,0,0.6,0,0.9,0C66.1,21.4,66.4,21.8,66.4,22.3z"/><path fill="#0CC" d="M81.4,15.5c-0.7,0.1-1.1,0.1-1.3,0.1c0,0,0,0-0.1,0h-6.8c-0.4,0-0.8,0.4-0.8,0.8c0,1.1,0.1,2.4,0.1,3.7 c0,0.6,0.3,1,0.8,1.2c0.5,0.2,1.4,0.3,2.9,0.3c0.5,0,1,0,1.4-0.1c0.4,0,0.7-0.1,0.9-0.2c0.2-0.1,0.4-0.2,0.6-0.3 c0.1-0.1,0.2-0.3,0.3-0.5c0.1-0.2,0.1-0.4,0.1-0.5c0-0.1,0-0.4,0.1-0.7c0-0.3,0-0.5,0.1-0.7l1.5,0.3c0.4,0.1,0.7,0.4,0.6,0.8 c0,0.4-0.1,0.7-0.1,1c-0.1,0.5-0.2,0.9-0.4,1.2c-0.2,0.3-0.4,0.6-0.6,0.8c-0.2,0.2-0.6,0.4-1,0.5c-0.4,0.1-0.9,0.2-1.4,0.3 c-0.5,0-1.1,0.1-1.8,0.1c-0.9,0-1.7-0.1-2.4-0.2c-0.7-0.1-1.3-0.2-1.8-0.4c-0.5-0.2-0.9-0.4-1.2-0.8c-0.3-0.4-0.6-0.7-0.7-1 c-0.2-0.3-0.3-0.8-0.4-1.4c-0.1-0.6-0.1-1.2-0.2-1.7c0-0.5,0-1.2,0-2.2c0-1.3,0-2.3,0-3c0-0.7,0.1-1.4,0.3-2.2 c0.1-0.7,0.3-1.2,0.6-1.6c0.3-0.3,0.6-0.6,1.1-0.9c0.5-0.3,1.1-0.5,1.8-0.5C74.1,7.6,75,7.6,76,7.6c0.7,0,1.3,0,1.9,0.1 c0.5,0,1,0.1,1.4,0.3c0.4,0.1,0.8,0.3,1.1,0.4c0.3,0.2,0.5,0.4,0.8,0.7c0.2,0.3,0.4,0.7,0.5,1c0.1,0.4,0.2,0.8,0.3,1.4 c0.1,0.6,0.1,1.2,0.1,1.8c0,0.4,0,0.9,0,1.5C82.1,15.1,81.8,15.5,81.4,15.5z M72.4,14.2h6.1c0.4,0,0.8-0.4,0.8-0.8 c0-0.9-0.1-1.7-0.1-2.5c0-0.6-0.3-0.9-0.7-1.1C78,9.6,77.2,9.5,76,9.5c-1.3,0-2.2,0.1-2.5,0.2c-0.2,0-0.3,0.1-0.4,0.2 c-0.1,0.1-0.2,0.3-0.3,0.5c-0.1,0.2-0.1,0.4-0.2,0.6c0,0.2-0.1,0.4-0.1,0.8c0,0.3,0,0.6,0,0.8c0,0.2,0,0.5,0,0.8 C72.4,13.8,72.4,14.1,72.4,14.2z"/><path fill="#0CC" d="M96.8,12.5L96,12.7c-0.4,0.1-0.8-0.2-0.9-0.7l-0.2-1.2c-0.1-0.4-0.2-0.7-0.3-0.9c-0.2-0.3-0.9-0.4-2-0.5 c-0.3,0-0.6,0-0.9,0c-1.3,0-2.1,0.1-2.5,0.2c-0.4,0.1-0.7,0.5-0.9,1.3c-0.2,0.8-0.3,1.7-0.3,2.8l0,2.4c0,0.3,0,0.8,0,1.4 c0,0.8,0,1.3,0,1.6c0,0.3,0,0.7,0.1,1.1c0.1,0.4,0.2,0.6,0.3,0.7c0.1,0.1,0.3,0.2,0.6,0.3c0.3,0.1,0.6,0.2,1,0.2 c0.3,0,0.8,0,1.5,0c0.5,0,0.9,0,1.3-0.1c0.4,0,0.7-0.1,0.9-0.1c0.3-0.1,0.5-0.1,0.6-0.3s0.3-0.2,0.4-0.3s0.2-0.3,0.2-0.5 c0-0.2,0.1-0.4,0.1-0.6c0-0.2,0-0.4,0-0.7c0-0.3,0-0.6,0.1-0.8l1.6,0.3c0.4,0.1,0.7,0.4,0.6,0.9c0,0.4-0.1,0.7-0.1,1 c-0.1,0.4-0.2,0.9-0.4,1.3c-0.2,0.4-0.4,0.7-0.6,0.9c-0.2,0.2-0.6,0.4-1,0.6c-0.4,0.2-0.9,0.3-1.5,0.3c-0.6,0.1-1.3,0.1-2.2,0.1 c-0.6,0-1.2,0-1.7-0.1c-0.5,0-0.9-0.1-1.3-0.2c-0.4-0.1-0.8-0.2-1.1-0.3c-0.3-0.1-0.6-0.3-0.8-0.6c-0.2-0.3-0.4-0.5-0.6-0.7 c-0.2-0.2-0.3-0.5-0.4-1c-0.1-0.4-0.2-0.8-0.2-1.1c-0.1-0.3-0.1-0.8-0.1-1.4c0-0.6,0-1.2,0-1.6c0-0.4,0-1.1,0-1.9 c0-0.7,0-1.4,0-1.9c0-0.5,0.1-1.1,0.2-1.6c0.1-0.5,0.2-0.9,0.3-1.2c0.1-0.3,0.3-0.6,0.5-0.9c0.2-0.3,0.5-0.5,0.8-0.7 C87.6,8.1,88,8,88.4,7.9c0.4-0.1,0.9-0.2,1.4-0.3c0.5,0,1.1-0.1,1.8-0.1c0.9,0,1.6,0,2.2,0.1s1.1,0.2,1.6,0.4 c0.5,0.2,0.8,0.5,1.1,0.9c0.3,0.4,0.5,0.8,0.6,1.4c0.1,0.4,0.2,0.8,0.2,1.3C97.5,12.1,97.2,12.5,96.8,12.5z"/><path fill="#0CC" d="M112.7,23.4h-1.2c-0.4,0-0.8-0.4-0.8-0.8V14c0-0.3,0-0.8,0-1.3c0-0.5,0-0.9,0-1c0-0.5,0-0.8-0.1-1.1 c-0.1-0.3-0.2-0.5-0.5-0.7c-0.3-0.2-0.6-0.3-1.1-0.4c-0.5-0.1-1.1-0.1-1.9-0.1c-0.4,0-0.7,0-1.1,0.1c-0.3,0-0.6,0.1-0.9,0.2 c-0.3,0.1-0.5,0.2-0.7,0.4c-0.2,0.2-0.3,0.4-0.3,0.6c-0.1,1.7-0.2,3.2-0.2,4.5v7.2c0,0.4-0.4,0.8-0.8,0.8H102 c-0.4,0-0.8-0.4-0.8-0.8V3.3c0-0.4,0.3-0.7,0.7-0.8l1.2-0.1c0.5,0,0.8,0.3,0.8,0.8v4.3c0,0.6,0.6,1,1.1,0.7c0.7-0.4,1.8-0.6,3-0.6 c0.6,0,1,0,1.5,0.1c0.4,0.1,0.8,0.1,1.2,0.2c0.3,0.1,0.6,0.2,0.9,0.4c0.3,0.1,0.5,0.3,0.7,0.5c0.2,0.2,0.3,0.4,0.5,0.6 c0.1,0.2,0.2,0.5,0.3,0.7c0.1,0.2,0.1,0.5,0.2,0.8c0,0.3,0.1,0.6,0.1,0.9c0,0.3,0,0.6,0,1c0,0.2,0,0.5,0,0.9c0,0.4,0,0.7,0,0.9v8 C113.4,23,113.1,23.4,112.7,23.4z"/></g></switch></svg>