<?xml version="1.0" encoding="UTF-8"?>
<svg width="20px" height="19px" viewBox="0 0 20 19" version="1.1" xmlns="http://www.w3.org/2000/svg" xmlns:xlink="http://www.w3.org/1999/xlink">
    <!-- Generator: Sketch 59.1 (86144) - https://sketch.com -->
    <title>civicnet</title>
    <desc>Created with Sketch.</desc>
    <g id="Page-1" stroke="none" stroke-width="1" fill="none" fill-rule="evenodd">
        <g id="civicnet" fill-rule="nonzero">
            <g id="simbol">
                <path d="M6.1292,2.35776 C5.63893,2.27399 5.15237,2.17976 4.66753,2.08069 L3.94292,1.92469 C3.69995961,1.88421717 3.46299017,1.81362317 3.23749,1.71454 L0.47031,0.72034 L0.9631,0.37424 L0.87431,10.66207 L0.60978,10.30307 L1.61731,10.60173 L2.12301,10.74441 C2.28701,10.80751 2.44648,10.88626 2.60843,10.95641 C3.25459,11.24262 3.8975,11.53989 4.53562,11.85351 C3.83037,11.76897 3.1299,11.66805 2.4327,11.55606 C2.25881,11.52663 2.08239,11.50583 1.91057,11.46937 L1.40875,11.31343 L0.40122,11.01478 C0.242939755,10.9672735 0.135089665,10.8208989 0.13659413,10.65565 L0.22541,0.36779 C0.226627026,0.163494173 0.393193797,-0.0011521192 0.59749,-6.00978609e-06 C0.638669603,0.000535662922 0.67948082,0.00783978979 0.71829,0.02162 L3.486,1.01422 C3.72312057,1.08122563 3.95097385,1.17749978 4.1643,1.30082 L4.82342,1.64144 C5.26105,1.87351 5.697,2.11043 6.1292,2.35776 Z" id="Path" fill="#FF5943"></path>
                <polyline id="Path" fill="#FF5943" points="5.422 3.071 2.171 2.199 2.078 9.753 6.817 11.851"></polyline>
                <path d="M2.59217,12.01848 C2.58933,12.43595 2.57647,12.85057 2.54505,13.2599 C2.51568613,13.6639306 2.43069061,14.061974 2.29247,14.44276 L1.6379,16.76588 L1.38147,16.3073 L3.95147,17.02294 L3.56323,17.15105 L5.18682,15.07564 L5.59272,14.5568 C5.66465,14.4737 5.72009,14.37757 5.79063,14.29337 C5.86963,14.21584 5.96043,14.14772 6.04475,14.07444 C6.38611,13.78453 6.73665,13.50189 7.10031,13.22961 C6.92277,13.64915 6.73211,14.0583 6.53231,14.46019 C6.48131,14.55986 6.43688,14.66469 6.38053,14.76012 C6.31577,14.84888 6.23591,14.92569 6.17253,15.01555 L5.76664,15.5344 L4.143,17.6098 C4.05135721,17.727125 3.89807281,17.7777081 3.7546,17.73797 L1.1846,17.02231 C0.987810125,16.9668725 0.872876513,16.7627646 0.92751,16.56575 L0.92811,16.5636 L1.58269,14.24048 C1.66354507,13.8436893 1.79882359,13.4599695 1.98469,13.1002 C2.17148,12.73516 2.37682,12.37539 2.59217,12.01848 Z" id="Path" fill="#9966FF"></path>
                <polyline id="Path" fill="#9966FF" points="3.334 12.615 2.874 15.616 3.525 15.797 5.953 13.115"></polyline>
                <path d="M13.36085,15.96177 L11.5424,14.05146 L11.4744,14.16726 L13.21987,16.46765 C13.1898,16.57421 13.16098,16.68096 13.14003,16.78895 C13.11067,16.98595 13.09335,17.18482 13.05925,17.38108 L12.92642,18.24908 L10.85317,18.25699 L9.13607,10.98139 L8.24374,7.20039 L8.02574,6.25396 L7.68928,5.33576 C7.46237,4.72428 7.2397,4.11176 6.99254,3.5051 C7.04279,4.15878 7.11754,4.80658 7.1881,5.4554 L7.29782,6.4277 L7.52598,7.3717 L8.41828,11.1527 L10.203,18.71465 C10.2422037,18.8819454 10.3915026,19.0001771 10.56333,19.0000002 L13.24441,18.98976 C13.4264185,18.9885909 13.5805058,18.8551368 13.60765,18.67516 L13.78842,17.49392 C13.81459,17.29646 13.85755,17.10156 13.88842,16.90481 C13.91073,16.70671 13.90685,16.50457 13.91736,16.30466 C13.94855,15.50335 13.96806,14.7002 13.9662,13.89375 C13.74909,14.58071 13.55077,15.27062 13.36085,15.96177 Z" id="Path" fill="#50A162"></path>
                <path d="M18.78313,2.69831 L13.68873,3.00594 C13.5793027,3.01298661 13.478598,3.06807986 13.41365,3.15643 L12.48541,4.42528 C12.18022,4.85137 11.85941,5.2658 11.55811,5.69479 C11.03902,6.61447 10.49657,7.51688 9.99783,8.45163 C10.73674,7.69463 11.43192,6.90519 12.15048,6.13311 C12.46803,5.7162 12.76599,5.28476 13.07961,4.86495 L13.43502,4.37915 L13.29421,9.11488 L10.3873,9.89088 L13.37021,9.50147 L15.30337,12.36132 C15.16859,12.37348 15.03408,12.39265 14.89955,12.41098 L13.97055,12.54167 C13.35138,12.63323 12.73239,12.73128 12.11376,12.84024 C12.73809,12.90886 13.36207,12.96655 13.98583,13.01781 L14.92127,13.088 C15.07715,13.099 15.23318,13.11466 15.38873,13.11487 L15.85451,13.09002 L15.86304,13.08966 C16.0174807,13.0807773 16.1500216,12.9765862 16.19512,12.82861 L19.15774,3.17804 C19.1706674,3.13540553 19.1760018,3.09083096 19.1735,3.04635 C19.1679286,2.94841521 19.1236593,2.85671075 19.0504409,2.79143186 C18.9772225,2.72615297 18.8810599,2.69265324 18.78313,2.69831 Z M17.66939,5.51131 L14.69351,3.68855 L18.29573,3.471 L17.66939,5.51131 Z M13.94391,3.80861 L17.51969,5.99889 L17.25349,6.86604 L13.79358,8.86951 L13.94391,3.80861 Z M17.04037,7.56033 L15.67,12.02405 L13.88723,9.38634 L17.04037,7.56033 Z" id="Shape" fill="#F49A0B"></path>
            </g>
        </g>
    </g>
</svg>