<svg xmlns="http://www.w3.org/2000/svg" viewBox="0 0 1000 180"><defs><style>.cls-1{fill:#fff;}</style></defs><title>Asset 1</title><g id="Layer_2" data-name="Layer 2"><g id="Layer_1-2" data-name="Layer 1"><path class="cls-1" d="M928.97285,42.65985h9.56859a10.83781,10.83781,0,0,0,7.38071-2.38918,8.03422,8.03422,0,0,0,2.741-6.38329,8.45626,8.45626,0,0,0-2.61269-6.68q-2.60846-2.32185-7.541-2.35254h-9.53655v17.805Zm11.09932,5.05474H928.97285v18.963H922.706V19.80029h15.64308q7.982,0,12.28533,3.60391,4.29136,3.60816,4.29541,10.49532a12.5154,12.5154,0,0,1-2.38805,7.63077,14.18447,14.18447,0,0,1-6.63553,4.86377l11.09932,19.89747v.38606h-6.6837l-10.2497-18.963Z"/><path class="cls-1" d="M993.8053,41.72538q0-8.33775-3.374-12.79908a11.174,11.174,0,0,0-9.44031-4.45757,11.05283,11.05283,0,0,0-9.30409,4.45757q-3.39,4.461-3.486,12.3805v3.4457q0,8.08151,3.422,12.70178a12.05162,12.05162,0,0,0,18.76849.256q3.31776-4.36415,3.414-12.50668V41.72538ZM1000,44.7525a28.83736,28.83736,0,0,1-2.332,12.02307,17.64394,17.64394,0,0,1-6.61951,7.84188,19.60073,19.60073,0,0,1-19.89043-.01626,18.05341,18.05341,0,0,1-6.70767-7.76059,27.6259,27.6259,0,0,1-2.44417-11.66952V41.79041a28.4726,28.4726,0,0,1,2.364-11.9459A17.55133,17.55133,0,0,1,980.991,19.1541a18.45118,18.45118,0,0,1,10.00929,2.72259,17.59373,17.59373,0,0,1,6.66769,7.88653A29.00251,29.00251,0,0,1,1000,41.79041V44.7525Z"/><path class="cls-1" d="M233.809,62.14661q0,10.894-4.479,15.05091-4.47882,4.15742-16.61448,4.15668-12.28056,0-16.53427-4.013c-2.857-2.67625-4.26985-7.50168-4.26985-14.478q0-10.894,4.399-15.123,4.42967-4.22838,16.69446-4.2285,12.13491,0,16.47,4.08533,4.33356,4.08534,4.33417,14.5496Z"/><path class="cls-1" d="M88.00261,92.74055h0A9.48191,9.48191,0,0,1,77.0581,84.85693l-.9176-6.03168q-.905-5.34108-2.13505-6.79337-2.92047-3.34172-16.173-3.79269-3.1446-.10629-6.96373-.10944-15.27439,0-19.98923,1.67432-5.1597.88848-7.52182,10.1357a93.06743,93.06743,0,0,0-2.35589,22.62078L21.112,121.84v23.89618a40.93462,40.93462,0,0,0,1.01249,8.46817c.6684,3.16131,1.44073,5.12536,2.29744,5.91108a19.37176,19.37176,0,0,0,4.88713,2.724,20.39518,20.39518,0,0,0,7.69058,1.67383q4.0984.11576,11.85061.10968,6.06509,0,10.50062-.44454,4.42968-.4437,7.52207-1.05579a12.1109,12.1109,0,0,0,5.05588-2.11814,21.15978,21.15978,0,0,0,3.03065-2.73059,8.62717,8.62717,0,0,0,1.629-3.84439,38.49876,38.49876,0,0,0,.73321-4.51386q.16581-1.89307.38934-5.73782.22379-3.844.56495-6.516l9.73782,1.64836a9.4907,9.4907,0,0,1,7.83193,10.43513q-.321,2.78046-.66986,4.96084a47.54827,47.54827,0,0,1-2.81054,10.142,18.50006,18.50006,0,0,1-4.939,7.41214,28.76613,28.76613,0,0,1-8.19658,4.50756,44.83247,44.83247,0,0,1-12.12967,2.62091Q60.188,179.99661,49.86278,180q-7.418,0-13.31091-.44454a53.21419,53.21419,0,0,1-10.72171-1.8352q-4.838-1.40025-8.42377-2.67867a14.76954,14.76954,0,0,1-6.34743-4.51411q-2.755-3.226-4.60124-5.56966-1.85954-2.33786-3.08933-7.573-1.23629-5.24426-1.9081-8.9183A89.52231,89.52231,0,0,1,.448,137.2687q-.3408-7.51513-.39619-12.75613-.058-5.23588-.05185-15.1521,0-8.91538.33774-15.435a106.827,106.827,0,0,1,1.3434-12.479,47.23128,47.23128,0,0,1,2.64129-9.91682,30.34367,30.34367,0,0,1,4.38064-7.41141,21.7307,21.7307,0,0,1,6.289-5.46047A39.06027,39.06027,0,0,1,23.75332,55.206a64.38034,64.38034,0,0,1,11.45516-2.00579q6.23016-.55543,14.5374-.55714a127.06746,127.06746,0,0,1,17.91239,1.05919A50.34469,50.34469,0,0,1,80.52187,57.212,21.08414,21.08414,0,0,1,89.393,64.17593a34.188,34.188,0,0,1,5.04977,11.03061,55.99266,55.99266,0,0,1,1.37274,6.66792,9.52477,9.52477,0,0,1-7.81286,10.86609Z"/><path class="cls-1" d="M139.75294,179.74448h-3.13556a9.62686,9.62686,0,0,1-9.49082-9.75759V62.85453a9.62614,9.62614,0,0,1,9.49082-9.75658h3.13556a9.62635,9.62635,0,0,1,9.49106,9.75658V169.98689a9.62706,9.62706,0,0,1-9.49106,9.75759Z"/><path class="cls-1" d="M294.23771,0l-59.0792,180H211.12639l-29.18975-75.7052h20.77428l4.32586,6.44516a12.85363,12.85363,0,0,0,22.20254-1.54474l47.5448-98.29759A19.37268,19.37268,0,0,1,294.23771,0Z"/><path class="cls-1" d="M311.69276,179.74448H308.556a9.62749,9.62749,0,0,1-9.49082-9.75759V62.85453A9.62677,9.62677,0,0,1,308.556,53.098h3.13678a9.62676,9.62676,0,0,1,9.49081,9.75658V169.98689a9.62748,9.62748,0,0,1-9.49081,9.75759Z"/><path class="cls-1" d="M441.42149,92.74055h0a9.48246,9.48246,0,0,1-10.94462-7.88362l-.91749-6.03168q-.90519-5.34108-2.13492-6.79337-2.91992-3.34172-16.17268-3.79269-3.145-.10629-6.9641-.10944-15.27384,0-19.98911,1.67432-5.15933.88848-7.52207,10.1357a93.06743,93.06743,0,0,0-2.35589,22.62078l.11054,19.27942v23.89618a40.94875,40.94875,0,0,0,1.01226,8.46817c.66839,3.16131,1.44073,5.12536,2.29744,5.91108a19.3808,19.3808,0,0,0,4.88713,2.724,20.39408,20.39408,0,0,0,7.69057,1.67383q4.098.11576,11.85111.10968,6.06452,0,10.50062-.44454,4.42966-.4437,7.5217-1.05579a12.11271,12.11271,0,0,0,5.05612-2.11814,21.20174,21.20174,0,0,0,3.03077-2.73059,8.62872,8.62872,0,0,0,1.62843-3.84439,38.29312,38.29312,0,0,0,.73321-4.51386q.166-1.89307.38946-5.73782.22506-3.844.56519-6.516l9.73832,1.64836a9.49054,9.49054,0,0,1,7.83132,10.43513q-.32118,2.78046-.67,4.96084a47.52466,47.52466,0,0,1-2.80968,10.142,18.49755,18.49755,0,0,1-4.9391,7.41214,28.78389,28.78389,0,0,1-8.19719,4.50756,44.83108,44.83108,0,0,1-12.13,2.62091q-6.91176.60786-17.237.61125-7.418,0-13.311-.44454a53.211,53.211,0,0,1-10.7217-1.8352q-4.83834-1.40025-8.42354-2.67867a14.76881,14.76881,0,0,1-6.34767-4.51411q-2.75391-3.226-4.60074-5.56966-1.85955-2.33786-3.08934-7.573-1.237-5.24426-1.90834-8.9183a89.54818,89.54818,0,0,1-1.01274-11.1978q-.34044-7.51513-.39595-12.75613-.0576-5.23588-.05136-15.1521,0-8.91538.33726-15.435A106.8249,106.8249,0,0,1,355.1,81.44641a47.24592,47.24592,0,0,1,2.6413-9.91682,30.36074,30.36074,0,0,1,4.38112-7.41141,21.71737,21.71737,0,0,1,6.28873-5.46047A39.05794,39.05794,0,0,1,377.1727,55.206a64.37726,64.37726,0,0,1,11.45491-2.00579q6.23052-.55543,14.53727-.55714a127.067,127.067,0,0,1,17.91252,1.05919A50.34312,50.34312,0,0,1,433.94063,57.212a21.07926,21.07926,0,0,1,8.87121,6.96395,34.18787,34.18787,0,0,1,5.04965,11.03061,56.01553,56.01553,0,0,1,1.37286,6.66792,9.52486,9.52486,0,0,1-7.81286,10.86609Z"/><path class="cls-1" d="M527.95953,169.683l-.101,3.51a6.32047,6.32047,0,0,1-5.60163,6.03653A95.55047,95.55047,0,0,1,510.6391,180a43.2975,43.2975,0,0,1-13.5315-1.78351,15.21364,15.21364,0,0,1-8.0282-5.67959,23.67165,23.67165,0,0,1-3.70576-8.63512,59.47778,59.47778,0,0,1-1.01213-12.093V79.99315a11.4648,11.4648,0,0,0-11.50957-11.4191h0a5.20161,5.20161,0,0,1-5.22182-5.18117V61.27912a5.20161,5.20161,0,0,1,5.22182-5.18117h0A11.4647,11.4647,0,0,0,484.36151,44.6786V27.08127a6.258,6.258,0,0,1,5.7749-6.21755l9.433-.76437a6.26721,6.26721,0,0,1,6.79914,6.21731V49.85977a6.26314,6.26314,0,0,0,6.28763,6.23818H522.7706a6.26309,6.26309,0,0,1,6.28763,6.23793h0a6.26314,6.26314,0,0,1-6.28763,6.23817H512.65615a6.26314,6.26314,0,0,0-6.28763,6.23818v69.53326q0,12.03545,1.18112,15.603,1.17813,3.56374,6.45773,3.56048,2.99439,0,7.26527-.22252a6.30532,6.30532,0,0,1,6.68689,6.39663Z"/><path class="cls-1" d="M575.77922,105.34914h49.271a6.26338,6.26338,0,0,0,6.28922-6.38644q-.28962-10.577-.98571-19.69315-.44829-6.78972-5.8934-9.07917-5.45153-2.27963-19.937-2.28606-16.05249,0-20.32637,1.78376a7.70672,7.70672,0,0,0-3.30981,1.95119,10.25842,10.25842,0,0,0-2.304,3.95358,45.10878,45.10878,0,0,0-1.40234,4.79073,42.74364,42.74364,0,0,0-.78529,6.18843c-.1877,2.63354-.31745,4.68106-.396,6.13068q-.10694,2.173-.16826,6.62569c-.03925,2.97447-.05209,4.97734-.05209,6.02076ZM647.86251,116.051q-8.16473.7953-10.78835.98421c-.15945.01116-.28443.01432-.44474.01432H582.02515a6.23312,6.23312,0,0,0-6.29411,6.27675q.19717,13.554.83347,29.15209.5554,7.466,6.45773,9.86513,5.89008,2.39574,22.9613,2.39549a103.42309,103.42309,0,0,0,11.00711-.50229,25.20376,25.20376,0,0,0,7.46973-1.78352,26.39279,26.39279,0,0,0,4.49167-2.454,6.87513,6.87513,0,0,0,2.41386-3.6767,25.46317,25.46317,0,0,0,1.013-4.23069q.22359-1.72819.44707-5.24159.22487-3.50551.56518-5.73685l11.75854,2.1373a6.29277,6.29277,0,0,1,5.1498,6.60119q-.29918,4.2495-.85256,7.58467A32.0313,32.0313,0,0,1,646.416,166.967a20.35628,20.35628,0,0,1-5.05527,6.51626,23.43071,23.43071,0,0,1-7.8592,3.95406,49.62586,49.62586,0,0,1-10.89731,2.06014q-5.94786.50231-14.70627.50254a129.50984,129.50984,0,0,1-19.54107-1.2817,93.25763,93.25763,0,0,1-14.20687-3.17417,21.50215,21.50215,0,0,1-9.71532-6.18237,47.57379,47.57379,0,0,1-6.00969-8.19033q-2.19025-3.90262-3.19988-11.47467-1.01212-7.58211-1.291-13.76145-.28248-6.191-.27893-17.10863,0-15.37752.38874-23.95417a109.08316,109.08316,0,0,1,2.19423-17.21224q1.79094-8.63549,4.82843-12.53774a29.3725,29.3725,0,0,1,8.98176-7.24107,37.26134,37.26134,0,0,1,14.03812-4.2916,182.60686,182.60686,0,0,1,20.55393-.94684q8.6442,0,14.93311.5023a56.87627,56.87627,0,0,1,11.572,2.06063,39.47893,39.47893,0,0,1,8.70295,3.56751,18.98862,18.98862,0,0,1,6.0619,5.90477,33.40125,33.40125,0,0,1,4.04289,8.07507,60.97745,60.97745,0,0,1,2.30392,11.08812q.89567,6.90729,1.1228,13.98663.15994,5.063.2036,11.92916a6.33524,6.33524,0,0,1-5.7211,6.29374Z"/><path class="cls-1" d="M771.23954,92.24213,765.01672,93.271a6.28029,6.28029,0,0,1-7.25012-5.22242l-1.40331-9.22332q-.905-5.34108-2.13492-6.79337-2.921-3.34172-16.17366-3.79269-3.14443-.10629-6.96312-.10944-15.27495,0-19.98984,1.67432-5.15934.88848-7.52183,10.1357a93.10008,93.10008,0,0,0-2.3554,22.62078l.10993,19.27942v23.89618a40.94482,40.94482,0,0,0,1.01287,8.46817c.66839,3.16131,1.44085,5.12536,2.29756,5.91108a19.36219,19.36219,0,0,0,4.88689,2.724,20.39466,20.39466,0,0,0,7.69008,1.67383q4.09933.11576,11.851.10968,6.06453,0,10.5005-.44454,4.42986-.4437,7.52195-1.05579a12.108,12.108,0,0,0,5.056-2.11814,21.155,21.155,0,0,0,3.03077-2.73059,8.62713,8.62713,0,0,0,1.62916-3.84439,38.68211,38.68211,0,0,0,.73333-4.51386q.166-1.89307.38947-5.73782c.30037-3.39657,3.84081-5.63072,6.68223-5.50535a57.9448,57.9448,0,0,1,6.58245,1.13926,6.30311,6.30311,0,0,1,5.20177,6.815q-.46755,4.742-1.00174,8.07944a47.51261,47.51261,0,0,1-2.81053,10.142,18.50007,18.50007,0,0,1-4.939,7.41214,28.76862,28.76862,0,0,1-8.19646,4.50756,44.83118,44.83118,0,0,1-12.12991,2.62091q-6.91175.60786-17.23788.61125-7.418,0-13.311-.44454a53.2125,53.2125,0,0,1-10.721-1.8352q-4.83834-1.40025-8.42427-2.67867a14.77032,14.77032,0,0,1-6.34694-4.51411q-2.755-3.226-4.60148-5.56966-1.85991-2.33786-3.08946-7.573-1.2359-5.24426-1.90809-8.9183a89.45364,89.45364,0,0,1-1.01213-11.1978q-.34135-7.51513-.39583-12.75613-.05888-5.23588-.05221-15.1521,0-8.91538.33738-15.435a106.87484,106.87484,0,0,1,1.34388-12.479,47.20072,47.20072,0,0,1,2.64142-9.91682,30.32389,30.32389,0,0,1,4.38051-7.41141,21.73056,21.73056,0,0,1,6.28934-5.46047,39.05223,39.05223,0,0,1,8.76067-3.45176,64.38285,64.38285,0,0,1,11.455-2.00579q6.23034-.55543,14.53814-.55714a127.05362,127.05362,0,0,1,17.91165,1.05919A50.32417,50.32417,0,0,1,760.74369,57.212a21.08219,21.08219,0,0,1,8.87218,6.96395,34.20076,34.20076,0,0,1,5.04965,11.03061,62.66036,62.66036,0,0,1,1.80709,10.14662,6.32267,6.32267,0,0,1-5.23307,6.889Z"/><path class="cls-1" d="M898.42394,180h-9.55256a6.26079,6.26079,0,0,1-6.28287-6.23866V100.78616q0-4.00854.16826-10.13545c.11214-4.0885.16827,3.20008.16827,1.86111a33.58993,33.58993,0,0,0-.84143-8.57713,10.31923,10.31923,0,0,0-3.87867-5.35127,17.99,17.99,0,0,0-8.53481-3.11666A112.60435,112.60435,0,0,0,854.628,74.6876a67.81612,67.81612,0,0,0-8.47868.50229,40.99317,40.99317,0,0,0-7.58114,1.66777,15.26931,15.26931,0,0,0-5.842,3.29064,7.49489,7.49489,0,0,0-2.46827,5.00937c-1.04979,13.3749-1.57878,20.4101-1.57878,31.10512v57.49855A6.26087,6.26087,0,0,1,822.39619,180h-9.66482a6.26076,6.26076,0,0,1-6.28274-6.23866V26.17385a6.25755,6.25755,0,0,1,5.778-6.21779l9.66483-.77359a6.26573,6.26573,0,0,1,6.78764,6.21779V58.43845a6.24179,6.24179,0,0,0,9.17581,5.47818q9.0037-4.60548,24.29821-4.60632a102.36963,102.36963,0,0,1,11.95676.8374,95.3302,95.3302,0,0,1,9.48837,1.72552,28.078,28.078,0,0,1,7.30074,2.785,35.41109,35.41109,0,0,1,5.38518,3.6738,16.796,16.796,0,0,1,3.82279,4.73929,32.92014,32.92014,0,0,1,2.46827,5.51215,34.98576,34.98576,0,0,1,1.41028,6.57425q.505,3.90227.67329,7.30246c.11213,2.26688.16018-4.97073.16018-1.69974,0,1.40982-.00794,3.69587-.048,6.8516-.04,3.1618-.05613,5.58907-.05613,7.302v68.84737A6.26761,6.26761,0,0,1,898.42394,180Z"/></g></g></svg>